<svg width="32" height="32" viewBox="0 0 32 32" fill="none" xmlns="http://www.w3.org/2000/svg">
<path d="M14.6498 23C10.9771 23 7.99983 19.866 7.99983 16C7.99983 12.134 10.9771 9 14.6498 9C18.3225 9 21.2998 12.134 21.2998 16C21.2998 19.866 18.3225 23 14.6498 23Z" stroke="black" stroke-width="1.2" stroke-linecap="round" stroke-linejoin="round"/>
<path d="M16.4002 13.7597C15.9547 13.3984 15.3988 13.2008 14.8252 13.1997C13.3755 13.1997 12.2002 14.4527 12.2002 15.9997C12.2002 17.5467 13.3755 18.7997 14.8252 18.7997C15.416 18.7997 15.9613 18.5911 16.4002 18.2397" stroke="black" stroke-width="1.2" stroke-linecap="round" stroke-linejoin="round"/>
<path d="M14.2998 9C17.3329 9 23.3998 9.7 23.3998 16C23.3998 22.3 17.3329 23 14.2998 23" stroke="black" stroke-width="1.2"/>
</svg>
