<svg width="33" height="32" viewBox="0 0 33 32" fill="none" xmlns="http://www.w3.org/2000/svg">
<path d="M15.1498 23.0001C11.4771 23.0001 8.49983 19.8661 8.49983 16.0001C8.49983 12.1341 11.4771 9.00012 15.1498 9.00012C18.8225 9.00012 21.7998 12.1341 21.7998 16.0001C21.7998 19.8661 18.8225 23.0001 15.1498 23.0001Z" stroke="#593F3F" stroke-width="1.2" stroke-linecap="round" stroke-linejoin="round"/>
<path d="M16.9002 13.76C16.4547 13.3987 15.8988 13.201 15.3252 13.2C13.8755 13.2 12.7002 14.453 12.7002 16C12.7002 17.547 13.8755 18.8 15.3252 18.8C15.916 18.8 16.4613 18.5914 16.9002 18.24" stroke="#593F3F" stroke-width="1.2" stroke-linecap="round" stroke-linejoin="round"/>
<path d="M14.7998 9.00012C17.8329 9.00012 23.8998 9.70012 23.8998 16.0001C23.8998 22.3001 17.8329 23.0001 14.7998 23.0001" stroke="#593F3F" stroke-width="1.2"/>
</svg>
