<svg width="24" height="24" viewBox="0 0 24 24" fill="none" xmlns="http://www.w3.org/2000/svg">
<rect width="24" height="24" rx="4" fill="#593F3F"/>
<path d="M15.5901 7.50952C14.6165 6.54307 13.2959 6.00008 11.9189 6C10.5419 5.99992 9.22124 6.54275 8.24749 7.50909C7.27374 8.47542 6.72664 9.78609 6.72656 11.1528C6.72648 12.5195 7.27342 13.8302 8.24705 14.7966L11.2817 17.7424C11.452 17.9075 11.6805 18 11.9186 18C12.1566 18 12.3852 17.9075 12.5555 17.7424L15.5901 14.7966C16.5637 13.8303 17.1107 12.5197 17.1107 11.1531C17.1107 9.78649 16.5637 8.47587 15.5901 7.50952ZM11.9186 12.86C11.5763 12.86 11.2417 12.7593 10.9571 12.5705C10.6725 12.3818 10.4507 12.1135 10.3197 11.7997C10.1887 11.4858 10.1544 11.1404 10.2212 10.8072C10.288 10.4741 10.4528 10.168 10.6948 9.92778C10.9369 9.68757 11.2452 9.52398 11.581 9.4577C11.9167 9.39142 12.2646 9.42544 12.5809 9.55544C12.8971 9.68545 13.1674 9.9056 13.3575 10.1881C13.5477 10.4705 13.6492 10.8026 13.6492 11.1423C13.6492 11.5979 13.4669 12.0348 13.1423 12.3569C12.8178 12.679 12.3776 12.86 11.9186 12.86Z" fill="white"/>
</svg>
