<svg width="32" height="32" viewBox="0 0 32 32" fill="none" xmlns="http://www.w3.org/2000/svg">
<rect width="32" height="32" rx="4" fill="#593F3F"/>
<path d="M8.88889 16.8889H14.2222C14.458 16.8889 14.6841 16.7952 14.8508 16.6285C15.0175 16.4618 15.1111 16.2357 15.1111 16V8.88889C15.1111 8.65314 15.0175 8.42705 14.8508 8.26035C14.6841 8.09365 14.458 8 14.2222 8H8.88889C8.65314 8 8.42705 8.09365 8.26035 8.26035C8.09365 8.42705 8 8.65314 8 8.88889V16C8 16.2357 8.09365 16.4618 8.26035 16.6285C8.42705 16.7952 8.65314 16.8889 8.88889 16.8889ZM8 23.1111C8 23.3469 8.09365 23.573 8.26035 23.7397C8.42705 23.9064 8.65314 24 8.88889 24H14.2222C14.458 24 14.6841 23.9064 14.8508 23.7397C15.0175 23.573 15.1111 23.3469 15.1111 23.1111V19.5556C15.1111 19.3198 15.0175 19.0937 14.8508 18.927C14.6841 18.7603 14.458 18.6667 14.2222 18.6667H8.88889C8.65314 18.6667 8.42705 18.7603 8.26035 18.927C8.09365 19.0937 8 19.3198 8 19.5556V23.1111ZM16.8889 23.1111C16.8889 23.3469 16.9825 23.573 17.1492 23.7397C17.3159 23.9064 17.542 24 17.7778 24H23.1111C23.3469 24 23.573 23.9064 23.7397 23.7397C23.9064 23.573 24 23.3469 24 23.1111V16.8889C24 16.6531 23.9064 16.427 23.7397 16.2604C23.573 16.0937 23.3469 16 23.1111 16H17.7778C17.542 16 17.3159 16.0937 17.1492 16.2604C16.9825 16.427 16.8889 16.6531 16.8889 16.8889V23.1111ZM17.7778 14.2222H23.1111C23.3469 14.2222 23.573 14.1286 23.7397 13.9619C23.9064 13.7952 24 13.5691 24 13.3333V8.88889C24 8.65314 23.9064 8.42705 23.7397 8.26035C23.573 8.09365 23.3469 8 23.1111 8H17.7778C17.542 8 17.3159 8.09365 17.1492 8.26035C16.9825 8.42705 16.8889 8.65314 16.8889 8.88889V13.3333C16.8889 13.5691 16.9825 13.7952 17.1492 13.9619C17.3159 14.1286 17.542 14.2222 17.7778 14.2222Z" fill="white"/>
</svg>
