<svg width="16" height="16" viewBox="0 0 16 16" fill="none" xmlns="http://www.w3.org/2000/svg">
<path d="M13 4.5H3C2.86739 4.5 2.74021 4.44732 2.64645 4.35355C2.55268 4.25979 2.5 4.13261 2.5 4C2.5 3.86739 2.55268 3.74021 2.64645 3.64645C2.74021 3.55268 2.86739 3.5 3 3.5H11.5C11.6326 3.5 11.7598 3.44732 11.8536 3.35355C11.9473 3.25979 12 3.13261 12 3C12 2.86739 11.9473 2.74021 11.8536 2.64645C11.7598 2.55268 11.6326 2.5 11.5 2.5H3C2.60218 2.5 2.22064 2.65804 1.93934 2.93934C1.65804 3.22064 1.5 3.60218 1.5 4V12C1.5 12.3978 1.65804 12.7794 1.93934 13.0607C2.22064 13.342 2.60218 13.5 3 13.5H13C13.2652 13.5 13.5196 13.3946 13.7071 13.2071C13.8946 13.0196 14 12.7652 14 12.5V5.5C14 5.23478 13.8946 4.98043 13.7071 4.79289C13.5196 4.60536 13.2652 4.5 13 4.5ZM10.75 9.5C10.6017 9.5 10.4567 9.45601 10.3333 9.3736C10.21 9.29119 10.1139 9.17406 10.0571 9.03701C10.0003 8.89997 9.98547 8.74917 10.0144 8.60368C10.0434 8.4582 10.1148 8.32456 10.2197 8.21967C10.3246 8.11478 10.4582 8.04335 10.6037 8.01441C10.7492 7.98547 10.9 8.00033 11.037 8.05709C11.1741 8.11386 11.2912 8.20999 11.3736 8.33332C11.456 8.45666 11.5 8.60166 11.5 8.75C11.5 8.94891 11.421 9.13968 11.2803 9.28033C11.1397 9.42098 10.9489 9.5 10.75 9.5Z" fill="white"/>
</svg>
