<svg width="24" height="24" viewBox="0 0 24 24" fill="none" xmlns="http://www.w3.org/2000/svg">
<path d="M10.7004 18C7.55238 18 5.00041 15.3137 5.00041 12C5.00041 8.68629 7.55238 6 10.7004 6C13.8484 6 16.4004 8.68629 16.4004 12C16.4004 15.3137 13.8484 18 10.7004 18Z" stroke="#373737" stroke-width="1.2" stroke-linecap="round" stroke-linejoin="round"/>
<path d="M12.1996 10.0796C11.8177 9.76995 11.3413 9.60053 10.8496 9.59961C9.60701 9.59961 8.59961 10.6736 8.59961 11.9996C8.59961 13.3256 9.60701 14.3996 10.8496 14.3996C11.356 14.3996 11.8234 14.2208 12.1996 13.9196" stroke="#373737" stroke-width="1.2" stroke-linecap="round" stroke-linejoin="round"/>
<path d="M10.3984 6C12.9982 6 18.1984 6.6 18.1984 12C18.1984 17.4 12.9982 18 10.3984 18" stroke="#373737" stroke-width="1.2"/>
</svg>
