<svg width="24" height="24" viewBox="0 0 24 24" fill="none" xmlns="http://www.w3.org/2000/svg">
<path d="M10.7267 14.3933L11.6667 15.3333L15 12L11.6667 8.66667L10.7267 9.60667L12.4467 11.3333H6V12.6667H12.4467L10.7267 14.3933ZM16.6667 6H7.33333C6.97971 6 6.64057 6.14048 6.39052 6.39052C6.14048 6.64057 6 6.97971 6 7.33333V10H7.33333V7.33333H16.6667V16.6667H7.33333V14H6V16.6667C6 17.0203 6.14048 17.3594 6.39052 17.6095C6.64057 17.8595 6.97971 18 7.33333 18H16.6667C17.4 18 18 17.4 18 16.6667V7.33333C18 6.6 17.4 6 16.6667 6Z" fill="#373737"/>
</svg>
