<svg width="24" height="24" viewBox="0 0 24 24" fill="none" xmlns="http://www.w3.org/2000/svg">
<rect width="24" height="24" rx="4" fill="#593F3F"/>
<path d="M14.5786 7.00879H8.42137C8.27942 7.01269 8.14038 7.04994 8.01549 7.11752C7.8906 7.18511 7.78337 7.28114 7.70246 7.39785L6.16315 9.5292C6.04885 9.69072 5.99177 9.88579 6.00096 10.0835C6.01015 10.2811 6.0851 10.47 6.2139 10.6203L10.8318 15.9402C10.9109 16.0421 11.0122 16.1245 11.128 16.1812C11.2438 16.2379 11.3711 16.2674 11.5 16.2674C11.6289 16.2674 11.7562 16.2379 11.872 16.1812C11.9878 16.1245 12.0891 16.0421 12.1682 15.9402L16.7861 10.6203C16.9149 10.47 16.9898 10.2811 16.999 10.0835C17.0082 9.88579 16.9512 9.69072 16.8369 9.5292L15.2975 7.39785C15.2166 7.28114 15.1094 7.18511 14.9845 7.11752C14.8596 7.04994 14.7206 7.01269 14.5786 7.00879Z" stroke="white" stroke-linecap="round" stroke-linejoin="round"/>
<path d="M11.0604 7L8.99666 10.197L11.5002 16.2443L14.0206 10.197L11.9653 7M6.01953 10.197H16.9808" stroke="white" stroke-linecap="round" stroke-linejoin="round"/>
</svg>
