<svg width="33" height="29" viewBox="0 0 33 29" fill="none" xmlns="http://www.w3.org/2000/svg">
<path d="M9.01511 15.8301H14.3484C14.5842 15.8301 14.8103 15.7364 14.977 15.5697C15.1437 15.403 15.2373 15.1769 15.2373 14.9412V7.83005C15.2373 7.5943 15.1437 7.36821 14.977 7.20151C14.8103 7.03481 14.5842 6.94116 14.3484 6.94116H9.01511C8.77936 6.94116 8.55327 7.03481 8.38657 7.20151C8.21987 7.36821 8.12622 7.5943 8.12622 7.83005V14.9412C8.12622 15.1769 8.21987 15.403 8.38657 15.5697C8.55327 15.7364 8.77936 15.8301 9.01511 15.8301ZM8.12622 22.0523C8.12622 22.288 8.21987 22.5141 8.38657 22.6808C8.55327 22.8475 8.77936 22.9412 9.01511 22.9412H14.3484C14.5842 22.9412 14.8103 22.8475 14.977 22.6808C15.1437 22.5141 15.2373 22.288 15.2373 22.0523V18.4967C15.2373 18.261 15.1437 18.0349 14.977 17.8682C14.8103 17.7015 14.5842 17.6078 14.3484 17.6078H9.01511C8.77936 17.6078 8.55327 17.7015 8.38657 17.8682C8.21987 18.0349 8.12622 18.261 8.12622 18.4967V22.0523ZM17.0151 22.0523C17.0151 22.288 17.1088 22.5141 17.2755 22.6808C17.4422 22.8475 17.6683 22.9412 17.904 22.9412H23.2373C23.4731 22.9412 23.6992 22.8475 23.8659 22.6808C24.0326 22.5141 24.1262 22.288 24.1262 22.0523V15.8301C24.1262 15.5943 24.0326 15.3682 23.8659 15.2015C23.6992 15.0348 23.4731 14.9412 23.2373 14.9412H17.904C17.6683 14.9412 17.4422 15.0348 17.2755 15.2015C17.1088 15.3682 17.0151 15.5943 17.0151 15.8301V22.0523ZM17.904 13.1634H23.2373C23.4731 13.1634 23.6992 13.0697 23.8659 12.903C24.0326 12.7363 24.1262 12.5102 24.1262 12.2745V7.83005C24.1262 7.5943 24.0326 7.36821 23.8659 7.20151C23.6992 7.03481 23.4731 6.94116 23.2373 6.94116H17.904C17.6683 6.94116 17.4422 7.03481 17.2755 7.20151C17.1088 7.36821 17.0151 7.5943 17.0151 7.83005V12.2745C17.0151 12.5102 17.1088 12.7363 17.2755 12.903C17.4422 13.0697 17.6683 13.1634 17.904 13.1634Z" fill="#1E6DD5"/>
</svg>
