<svg width="24" height="24" viewBox="0 0 24 24" fill="none" xmlns="http://www.w3.org/2000/svg">
<rect width="24" height="24" rx="4" fill="#593F3F"/>
<path d="M16.9058 7.29075C16.8507 7.20166 16.7744 7.12827 16.684 7.07743C16.5936 7.02659 16.4921 6.99995 16.3889 7H6.61139C6.48821 6.99994 6.36789 7.0379 6.26621 7.1089C6.16452 7.1799 6.08622 7.28063 6.04157 7.39788C5.99691 7.51513 5.988 7.64343 6.01598 7.76595C6.04397 7.88846 6.10755 7.99948 6.19839 8.08445L8.19005 9.94959L6.16224 12.1939C6.08165 12.2831 6.02826 12.3943 6.00858 12.5139C5.98891 12.6336 6.00382 12.7565 6.05147 12.8677C6.09913 12.9788 6.17747 13.0733 6.27692 13.1397C6.37636 13.2061 6.49259 13.2414 6.61139 13.2414H13.0931L11.7634 16.0937C11.7266 16.168 11.7047 16.249 11.6989 16.3321C11.6932 16.4151 11.7038 16.4985 11.7301 16.5773C11.7564 16.6561 11.7979 16.7287 11.8521 16.7909C11.9063 16.853 11.9721 16.9035 12.0457 16.9393C12.1193 16.9751 12.1991 16.9955 12.2805 16.9993C12.3619 17.0032 12.4433 16.9903 12.5198 16.9615C12.5962 16.9328 12.6663 16.8886 12.7259 16.8318C12.7854 16.7749 12.8332 16.7065 12.8665 16.6305L16.9404 7.89252C16.9849 7.79739 17.005 7.69231 16.9989 7.58708C16.9929 7.48185 16.9608 7.3799 16.9058 7.29075ZM13.6751 11.9931H8.00723L9.50492 10.336C9.55959 10.2757 9.60203 10.2048 9.62981 10.1276C9.65759 10.0505 9.67016 9.96843 9.6668 9.88626C9.66344 9.8041 9.64422 9.72342 9.61023 9.64886C9.57625 9.57431 9.52817 9.50735 9.46877 9.45184L8.18241 8.24828H15.4213L13.6751 11.9931Z" fill="white"/>
</svg>
