<svg width="24" height="24" viewBox="0 0 24 24" fill="none" xmlns="http://www.w3.org/2000/svg">
<path d="M11.3663 10.8804C11.5345 11.0482 11.7624 11.1424 12 11.1424C12.2376 11.1424 12.4655 11.0482 12.6337 10.8804L14.3089 9.20469C14.3921 9.12151 14.4581 9.02276 14.5031 8.91407C14.5482 8.80537 14.5713 8.68887 14.5713 8.57122C14.5713 8.45357 14.5482 8.33707 14.5031 8.22838C14.4581 8.11968 14.3921 8.02093 14.3089 7.93775L12.6337 6.26206C12.4655 6.09425 12.2376 6 12 6C11.7624 6 11.5345 6.09425 11.3663 6.26206L9.69111 7.93775C9.6079 8.02093 9.5419 8.11968 9.49686 8.22838C9.45183 8.33707 9.42865 8.45357 9.42865 8.57122C9.42865 8.68887 9.45183 8.80537 9.49686 8.91407C9.5419 9.02276 9.6079 9.12151 9.69111 9.20469L11.3663 10.8804ZM10.2949 8.54363L11.9705 6.86848C11.9777 6.86142 11.9873 6.85745 11.9973 6.85745C12.0074 6.85745 12.017 6.86142 12.0241 6.86848L13.6998 8.54363C13.7065 8.55094 13.7102 8.5605 13.7102 8.57042C13.7102 8.58033 13.7065 8.58989 13.6998 8.5972L12.0273 10.2745C12.0201 10.2814 12.0105 10.2853 12.0005 10.2853C11.9905 10.2853 11.9809 10.2814 11.9738 10.2745L10.297 8.59881C10.2898 8.59141 10.2858 8.58152 10.2858 8.57122C10.2858 8.56092 10.2898 8.55103 10.297 8.54363H10.2949ZM17.7358 11.3663L16.0623 9.69058C15.8941 9.52279 15.6663 9.42856 15.4288 9.42856C15.1913 9.42856 14.9634 9.52279 14.7953 9.69058L13.1196 11.3663C12.9518 11.5345 12.8576 11.7624 12.8576 12C12.8576 12.2376 12.9518 12.4655 13.1196 12.6337L14.7953 14.3094C14.9634 14.4772 15.1913 14.5714 15.4288 14.5714C15.6663 14.5714 15.8941 14.4772 16.0623 14.3094L17.7379 12.6337C17.9058 12.4655 18 12.2376 18 12C18 11.7624 17.9058 11.5345 17.7379 11.3663H17.7358ZM17.1321 12.0273L15.4564 13.703C15.4491 13.7097 15.4395 13.7134 15.4296 13.7134C15.4197 13.7134 15.4101 13.7097 15.4028 13.703L13.7271 12.0273C13.7202 12.0201 13.7163 12.0105 13.7163 12.0005C13.7163 11.9905 13.7202 11.9809 13.7271 11.9738L15.4028 10.2981C15.4101 10.2914 15.4197 10.2876 15.4296 10.2876C15.4395 10.2876 15.4491 10.2914 15.4564 10.2981L17.1321 11.9738C17.139 11.9809 17.1429 11.9905 17.1429 12.0005C17.1429 12.0105 17.139 12.0201 17.1321 12.0273ZM10.8804 11.3663L9.20469 9.69058C9.03657 9.52279 8.80874 9.42856 8.57122 9.42856C8.3337 9.42856 8.10587 9.52279 7.93775 9.69058L6.26206 11.3663C6.09425 11.5345 6 11.7624 6 12C6 12.2376 6.09425 12.4655 6.26206 12.6337L7.93775 14.3094C8.10587 14.4772 8.3337 14.5714 8.57122 14.5714C8.80874 14.5714 9.03657 14.4772 9.20469 14.3094L10.8804 12.6337C11.0482 12.4655 11.1424 12.2376 11.1424 12C11.1424 11.7624 11.0482 11.5345 10.8804 11.3663ZM10.2745 12.0273L8.59881 13.703C8.5915 13.7097 8.58194 13.7134 8.57202 13.7134C8.56211 13.7134 8.55255 13.7097 8.54524 13.703L6.86795 12.0273C6.86101 12.0201 6.85713 12.0105 6.85713 12.0005C6.85713 11.9905 6.86101 11.9809 6.86795 11.9738L8.54363 10.297C8.55094 10.2903 8.5605 10.2866 8.57042 10.2866C8.58033 10.2866 8.58989 10.2903 8.5972 10.297L10.2729 11.9727C10.2766 11.9762 10.2796 11.9803 10.2817 11.985C10.2837 11.9896 10.2849 11.9946 10.285 11.9997C10.2852 12.0047 10.2843 12.0098 10.2825 12.0145C10.2807 12.0193 10.278 12.0236 10.2745 12.0273ZM12.6316 13.1196C12.4634 12.9518 12.2355 12.8576 11.9979 12.8576C11.7602 12.8576 11.5323 12.9518 11.3641 13.1196L9.69111 14.7953C9.6079 14.8785 9.5419 14.9772 9.49686 15.0859C9.45183 15.1946 9.42865 15.3111 9.42865 15.4288C9.42865 15.5464 9.45183 15.6629 9.49686 15.7716C9.5419 15.8803 9.6079 15.9791 9.69111 16.0623L11.3663 17.7379C11.5345 17.9058 11.7624 18 12 18C12.2376 18 12.4655 17.9058 12.6337 17.7379L14.3089 16.0623C14.3921 15.9791 14.4581 15.8803 14.5031 15.7716C14.5482 15.6629 14.5713 15.5464 14.5713 15.4288C14.5713 15.3111 14.5482 15.1946 14.5031 15.0859C14.4581 14.9772 14.3921 14.8785 14.3089 14.7953L12.6316 13.1196ZM13.703 15.4564L12.0273 17.1315C12.0202 17.1386 12.0106 17.1425 12.0005 17.1425C11.9905 17.1425 11.9809 17.1386 11.9738 17.1315L10.297 15.4564C10.2903 15.4491 10.2866 15.4395 10.2866 15.4296C10.2866 15.4197 10.2903 15.4101 10.297 15.4028L11.9727 13.7271C11.9799 13.7202 11.9895 13.7163 11.9995 13.7163C12.0095 13.7163 12.0191 13.7202 12.0262 13.7271L13.7019 15.4028C13.7088 15.41 13.7127 15.4195 13.7129 15.4294C13.7131 15.4393 13.7096 15.4489 13.703 15.4564Z" fill="black"/>
</svg>
