<svg width="24" height="24" viewBox="0 0 24 24" fill="none" xmlns="http://www.w3.org/2000/svg">
<path d="M6.66667 12.6667H10.6667C10.8435 12.6667 11.013 12.5964 11.1381 12.4714C11.2631 12.3464 11.3333 12.1768 11.3333 12V6.66667C11.3333 6.48986 11.2631 6.32029 11.1381 6.19526C11.013 6.07024 10.8435 6 10.6667 6H6.66667C6.48986 6 6.32029 6.07024 6.19526 6.19526C6.07024 6.32029 6 6.48986 6 6.66667V12C6 12.1768 6.07024 12.3464 6.19526 12.4714C6.32029 12.5964 6.48986 12.6667 6.66667 12.6667ZM6 17.3333C6 17.5101 6.07024 17.6797 6.19526 17.8047C6.32029 17.9298 6.48986 18 6.66667 18H10.6667C10.8435 18 11.013 17.9298 11.1381 17.8047C11.2631 17.6797 11.3333 17.5101 11.3333 17.3333V14.6667C11.3333 14.4899 11.2631 14.3203 11.1381 14.1953C11.013 14.0702 10.8435 14 10.6667 14H6.66667C6.48986 14 6.32029 14.0702 6.19526 14.1953C6.07024 14.3203 6 14.4899 6 14.6667V17.3333ZM12.6667 17.3333C12.6667 17.5101 12.7369 17.6797 12.8619 17.8047C12.987 17.9298 13.1565 18 13.3333 18H17.3333C17.5101 18 17.6797 17.9298 17.8047 17.8047C17.9298 17.6797 18 17.5101 18 17.3333V12.6667C18 12.4899 17.9298 12.3203 17.8047 12.1953C17.6797 12.0702 17.5101 12 17.3333 12H13.3333C13.1565 12 12.987 12.0702 12.8619 12.1953C12.7369 12.3203 12.6667 12.4899 12.6667 12.6667V17.3333ZM13.3333 10.6667H17.3333C17.5101 10.6667 17.6797 10.5964 17.8047 10.4714C17.9298 10.3464 18 10.1768 18 10V6.66667C18 6.48986 17.9298 6.32029 17.8047 6.19526C17.6797 6.07024 17.5101 6 17.3333 6H13.3333C13.1565 6 12.987 6.07024 12.8619 6.19526C12.7369 6.32029 12.6667 6.48986 12.6667 6.66667V10C12.6667 10.1768 12.7369 10.3464 12.8619 10.4714C12.987 10.5964 13.1565 10.6667 13.3333 10.6667Z" fill="#373737"/>
</svg>
