<svg width="24" height="24" viewBox="0 0 24 24" fill="none" xmlns="http://www.w3.org/2000/svg">
<path fill-rule="evenodd" clip-rule="evenodd" d="M9.05556 8.44444C9.05556 7.79614 9.31309 7.17438 9.77152 6.71596C10.2299 6.25754 10.8517 6 11.5 6C12.1483 6 12.7701 6.25754 13.2285 6.71596C13.6869 7.17438 13.9444 7.79614 13.9444 8.44444C13.9444 9.09275 13.6869 9.71451 13.2285 10.1729C12.7701 10.6314 12.1483 10.8889 11.5 10.8889C10.8517 10.8889 10.2299 10.6314 9.77152 10.1729C9.31309 9.71451 9.05556 9.09275 9.05556 8.44444ZM9.05556 12.1111C8.24517 12.1111 7.46798 12.433 6.89495 13.0061C6.32192 13.5791 6 14.3563 6 15.1667C6 15.6529 6.19315 16.1192 6.53697 16.463C6.88079 16.8068 7.3471 17 7.83333 17H15.1667C15.6529 17 16.1192 16.8068 16.463 16.463C16.8068 16.1192 17 15.6529 17 15.1667C17 14.3563 16.6781 13.5791 16.105 13.0061C15.532 12.433 14.7548 12.1111 13.9444 12.1111H9.05556Z" fill="#373737"/>
</svg>
