<svg width="33" height="32" viewBox="0 0 33 32" fill="none" xmlns="http://www.w3.org/2000/svg">
<rect x="0.5" width="32" height="32" rx="4" fill="white"/>
<path d="M9.38889 16.8889H14.7222C14.958 16.8889 15.1841 16.7952 15.3508 16.6285C15.5175 16.4618 15.6111 16.2357 15.6111 16V8.88889C15.6111 8.65314 15.5175 8.42705 15.3508 8.26035C15.1841 8.09365 14.958 8 14.7222 8H9.38889C9.15314 8 8.92705 8.09365 8.76035 8.26035C8.59365 8.42705 8.5 8.65314 8.5 8.88889V16C8.5 16.2357 8.59365 16.4618 8.76035 16.6285C8.92705 16.7952 9.15314 16.8889 9.38889 16.8889ZM8.5 23.1111C8.5 23.3469 8.59365 23.573 8.76035 23.7397C8.92705 23.9064 9.15314 24 9.38889 24H14.7222C14.958 24 15.1841 23.9064 15.3508 23.7397C15.5175 23.573 15.6111 23.3469 15.6111 23.1111V19.5556C15.6111 19.3198 15.5175 19.0937 15.3508 18.927C15.1841 18.7603 14.958 18.6667 14.7222 18.6667H9.38889C9.15314 18.6667 8.92705 18.7603 8.76035 18.927C8.59365 19.0937 8.5 19.3198 8.5 19.5556V23.1111ZM17.3889 23.1111C17.3889 23.3469 17.4825 23.573 17.6492 23.7397C17.8159 23.9064 18.042 24 18.2778 24H23.6111C23.8469 24 24.073 23.9064 24.2397 23.7397C24.4064 23.573 24.5 23.3469 24.5 23.1111V16.8889C24.5 16.6531 24.4064 16.427 24.2397 16.2604C24.073 16.0937 23.8469 16 23.6111 16H18.2778C18.042 16 17.8159 16.0937 17.6492 16.2604C17.4825 16.427 17.3889 16.6531 17.3889 16.8889V23.1111ZM18.2778 14.2222H23.6111C23.8469 14.2222 24.073 14.1286 24.2397 13.9619C24.4064 13.7952 24.5 13.5691 24.5 13.3333V8.88889C24.5 8.65314 24.4064 8.42705 24.2397 8.26035C24.073 8.09365 23.8469 8 23.6111 8H18.2778C18.042 8 17.8159 8.09365 17.6492 8.26035C17.4825 8.42705 17.3889 8.65314 17.3889 8.88889V13.3333C17.3889 13.5691 17.4825 13.7952 17.6492 13.9619C17.8159 14.1286 18.042 14.2222 18.2778 14.2222Z" fill="#593F3F"/>
</svg>
