<svg width="25" height="25" viewBox="0 0 25 25" fill="none" xmlns="http://www.w3.org/2000/svg">
<rect x="0.626221" y="0.796265" width="24.0854" height="24" rx="4" fill="#593F3F"/>
<path fill-rule="evenodd" clip-rule="evenodd" d="M9.4895 8.84412C9.4895 8.04847 9.80557 7.2854 10.3682 6.7228C10.9308 6.16019 11.6939 5.84412 12.4895 5.84412C13.2852 5.84412 14.0482 6.16019 14.6108 6.7228C15.1734 7.2854 15.4895 8.04847 15.4895 8.84412C15.4895 9.63977 15.1734 10.4028 14.6108 10.9654C14.0482 11.528 13.2852 11.8441 12.4895 11.8441C11.6939 11.8441 10.9308 11.528 10.3682 10.9654C9.80557 10.4028 9.4895 9.63977 9.4895 8.84412ZM9.4895 13.3441C8.49494 13.3441 7.54111 13.7392 6.83785 14.4425C6.13459 15.1457 5.7395 16.0996 5.7395 17.0941C5.7395 17.6909 5.97655 18.2632 6.39851 18.6851C6.82047 19.1071 7.39276 19.3441 7.9895 19.3441H16.9895C17.5862 19.3441 18.1585 19.1071 18.5805 18.6851C19.0024 18.2632 19.2395 17.6909 19.2395 17.0941C19.2395 16.0996 18.8444 15.1457 18.1412 14.4425C17.4379 13.7392 16.4841 13.3441 15.4895 13.3441H9.4895Z" fill="white"/>
</svg>
