<svg width="33" height="33" viewBox="0 0 33 33" fill="none" xmlns="http://www.w3.org/2000/svg">
<rect x="0.626221" y="0.0668945" width="32.1139" height="32" rx="4" fill="#593F3F"/>
<path d="M21.4863 10.0796C20.1835 8.79099 18.4165 8.067 16.574 8.06689C14.7314 8.06679 12.9643 8.79057 11.6613 10.079C10.3584 11.3675 9.62633 13.115 9.62622 14.9373C9.62611 16.7595 10.358 18.5072 11.6608 19.7958L15.7214 23.7234C15.9492 23.9436 16.255 24.0669 16.5736 24.0669C16.8921 24.0669 17.1979 23.9436 17.4257 23.7234L21.4863 19.7958C22.7891 18.5073 23.521 16.7598 23.521 14.9377C23.521 13.1156 22.7891 11.3681 21.4863 10.0796ZM16.5736 17.2136C16.1155 17.2136 15.6678 17.0792 15.287 16.8276C14.9062 16.5759 14.6094 16.2183 14.4341 15.7998C14.2588 15.3813 14.213 14.9208 14.3023 14.4766C14.3917 14.0323 14.6122 13.6242 14.9361 13.3039C15.26 12.9836 15.6726 12.7655 16.1218 12.6772C16.571 12.5888 17.0366 12.6341 17.4597 12.8075C17.8829 12.9808 18.2445 13.2744 18.499 13.651C18.7535 14.0276 18.8893 14.4704 18.8893 14.9234C18.8893 15.5308 18.6453 16.1133 18.211 16.5428C17.7767 16.9723 17.1877 17.2136 16.5736 17.2136Z" fill="white"/>
</svg>
