<svg width="32" height="29" viewBox="0 0 32 29" fill="none" xmlns="http://www.w3.org/2000/svg">
<path fill-rule="evenodd" clip-rule="evenodd" d="M12.4444 10.4967C12.4444 9.55373 12.819 8.64936 13.4858 7.98256C14.1526 7.31576 15.057 6.94116 16 6.94116C16.943 6.94116 17.8474 7.31576 18.5142 7.98256C19.181 8.64936 19.5556 9.55373 19.5556 10.4967C19.5556 11.4397 19.181 12.3441 18.5142 13.0109C17.8474 13.6777 16.943 14.0523 16 14.0523C15.057 14.0523 14.1526 13.6777 13.4858 13.0109C12.819 12.3441 12.4444 11.4397 12.4444 10.4967ZM12.4444 15.8301C11.2657 15.8301 10.1352 16.2983 9.30175 17.1318C8.46825 17.9653 8 19.0958 8 20.2745C8 20.9817 8.28095 21.66 8.78105 22.1601C9.28115 22.6602 9.95942 22.9412 10.6667 22.9412H21.3333C22.0406 22.9412 22.7189 22.6602 23.219 22.1601C23.719 21.66 24 20.9817 24 20.2745C24 19.0958 23.5317 17.9653 22.6983 17.1318C21.8648 16.2983 20.7343 15.8301 19.5556 15.8301H12.4444Z" fill="#1E6DD5"/>
</svg>
