<svg width="33" height="33" viewBox="0 0 33 33" fill="none" xmlns="http://www.w3.org/2000/svg">
<rect x="0.0842285" y="0.0668945" width="32.1139" height="32" rx="4" fill="#593F3F"/>
<path d="M20.0846 16.7341C19.4982 16.7321 18.9276 16.9241 18.4616 17.2801C17.9956 17.6361 17.6604 18.1363 17.5083 18.7026C17.3561 19.269 17.3955 19.8697 17.6203 20.4113C17.8451 20.953 18.2427 21.4051 18.7512 21.6972V23.586C18.7511 23.6811 18.7793 23.7741 18.8321 23.8532C18.8849 23.9323 18.96 23.9939 19.0479 24.0303C19.1358 24.0668 19.2324 24.0763 19.3257 24.0577C19.419 24.0391 19.5047 23.9933 19.5719 23.926L20.0846 23.414L20.5973 23.926C20.6645 23.9933 20.7502 24.0391 20.8435 24.0577C20.9368 24.0763 21.0335 24.0668 21.1213 24.0303C21.2092 23.9939 21.2843 23.9323 21.3371 23.8532C21.3899 23.7741 21.4181 23.6811 21.418 23.586V21.6972C21.9265 21.4051 22.3241 20.953 22.5489 20.4113C22.7737 19.8697 22.8131 19.269 22.6609 18.7026C22.5088 18.1363 22.1736 17.6361 21.7076 17.2801C21.2417 16.9241 20.671 16.7321 20.0846 16.7341Z" fill="white"/>
<path d="M16.0847 19.4011C16.0839 18.6986 16.2683 18.0084 16.6193 17.3999C16.9703 16.7914 17.4755 16.2862 18.084 15.9353C18.6925 15.5843 19.3828 15.3999 20.0852 15.4008C20.7877 15.4017 21.4775 15.5877 22.0852 15.9402V11.4005C22.0841 10.5167 21.7325 9.66939 21.1076 9.04445C20.4827 8.41951 19.6354 8.06795 18.7516 8.06689H13.4178C12.534 8.06795 11.6867 8.41951 11.0618 9.04445C10.4368 9.66939 10.0853 10.5167 10.0842 11.4005V19.4011C10.0853 20.2849 10.4368 21.1322 11.0618 21.7571C11.6867 22.3821 12.534 22.7336 13.4178 22.7347H17.4181V22.3747C16.9988 22.001 16.6632 21.543 16.4334 21.0305C16.2036 20.518 16.0848 19.9627 16.0847 19.4011ZM13.4178 10.7338H18.7516C18.9284 10.7338 19.098 10.804 19.223 10.929C19.348 11.0541 19.4183 11.2237 19.4183 11.4005C19.4183 11.5773 19.348 11.7469 19.223 11.8719C19.098 11.997 18.9284 12.0672 18.7516 12.0672H13.4178C13.241 12.0672 13.0714 11.997 12.9464 11.8719C12.8213 11.7469 12.7511 11.5773 12.7511 11.4005C12.7511 11.2237 12.8213 11.0541 12.9464 10.929C13.0714 10.804 13.241 10.7338 13.4178 10.7338ZM13.4178 13.4006H18.7516C18.9284 13.4006 19.098 13.4709 19.223 13.5959C19.348 13.721 19.4183 13.8905 19.4183 14.0674C19.4183 14.2442 19.348 14.4138 19.223 14.5388C19.098 14.6638 18.9284 14.7341 18.7516 14.7341H13.4178C13.241 14.7341 13.0714 14.6638 12.9464 14.5388C12.8213 14.4138 12.7511 14.2442 12.7511 14.0674C12.7511 13.8905 12.8213 13.721 12.9464 13.5959C13.0714 13.4709 13.241 13.4006 13.4178 13.4006ZM15.418 17.401H13.4178C13.241 17.401 13.0714 17.3307 12.9464 17.2057C12.8213 17.0806 12.7511 16.9111 12.7511 16.7342C12.7511 16.5574 12.8213 16.3878 12.9464 16.2628C13.0714 16.1378 13.241 16.0675 13.4178 16.0675H15.418C15.5948 16.0675 15.7644 16.1378 15.8894 16.2628C16.0145 16.3878 16.0847 16.5574 16.0847 16.7342C16.0847 16.9111 16.0145 17.0806 15.8894 17.2057C15.7644 17.3307 15.5948 17.401 15.418 17.401Z" fill="white"/>
</svg>
