<svg width="33" height="33" viewBox="0 0 33 33" fill="none" xmlns="http://www.w3.org/2000/svg">
<rect x="0.626221" y="0.0668945" width="32.1139" height="32" rx="4" fill="#593F3F"/>
<path fill-rule="evenodd" clip-rule="evenodd" d="M12.6262 11.0669C12.6262 10.006 13.0476 8.98861 13.7978 8.23847C14.5479 7.48832 15.5654 7.06689 16.6262 7.06689C17.6871 7.06689 18.7045 7.48832 19.4546 8.23847C20.2048 8.98861 20.6262 10.006 20.6262 11.0669C20.6262 12.1278 20.2048 13.1452 19.4546 13.8953C18.7045 14.6455 17.6871 15.0669 16.6262 15.0669C15.5654 15.0669 14.5479 14.6455 13.7978 13.8953C13.0476 13.1452 12.6262 12.1278 12.6262 11.0669ZM12.6262 17.0669C11.3001 17.0669 10.0284 17.5937 9.09069 18.5314C8.153 19.469 7.62622 20.7408 7.62622 22.0669C7.62622 22.8625 7.94229 23.6256 8.5049 24.1882C9.06751 24.7508 9.83057 25.0669 10.6262 25.0669H22.6262C23.4219 25.0669 24.1849 24.7508 24.7475 24.1882C25.3102 23.6256 25.6262 22.8625 25.6262 22.0669C25.6262 20.7408 25.0994 19.469 24.1618 18.5314C23.2241 17.5937 21.9523 17.0669 20.6262 17.0669H12.6262Z" fill="white"/>
</svg>
