<svg width="25" height="25" viewBox="0 0 25 25" fill="none" xmlns="http://www.w3.org/2000/svg">
<rect x="0.626221" y="0.255615" width="24.0854" height="24" rx="4" fill="#593F3F"/>
<path d="M8.55479 7.25562H17.5548C18.0663 7.25562 18.5568 7.45316 18.9185 7.80479C19.2802 8.15642 19.4834 8.63333 19.4834 9.13062V11.6306H14.9834V11.0056H11.1262V11.6306H6.62622V9.13062C6.62622 8.63333 6.82941 8.15642 7.19109 7.80479C7.55276 7.45316 8.0433 7.25562 8.55479 7.25562ZM12.4119 11.6306H13.6976V12.8806H12.4119V11.6306ZM6.62622 12.2556H11.1262V12.8806L12.4119 14.1306H13.6976L14.9834 12.8806V12.2556H19.4834V17.2556H6.62622V12.2556Z" fill="white"/>
</svg>
