<svg width="33" height="33" viewBox="0 0 33 33" fill="none" xmlns="http://www.w3.org/2000/svg">
<rect x="0.541992" y="0.0668945" width="32.1139" height="32" rx="4" fill="#593F3F"/>
<path d="M8.95876 8.06689H23.3588C24.1771 8.06689 24.962 8.38297 25.5407 8.94557C26.1194 9.50818 26.4445 10.2712 26.4445 11.0669V15.0669H19.2445V14.0669H13.073V15.0669H5.87305V11.0669C5.87305 10.2712 6.19815 9.50818 6.77683 8.94557C7.35552 8.38297 8.14038 8.06689 8.95876 8.06689ZM15.1302 15.0669H17.1873V17.0669H15.1302V15.0669ZM5.87305 16.0669H13.073V17.0669L15.1302 19.0669H17.1873L19.2445 17.0669V16.0669H26.4445V24.0669H5.87305V16.0669Z" fill="white"/>
</svg>
