<svg width="25" height="25" viewBox="0 0 25 25" fill="none" xmlns="http://www.w3.org/2000/svg">
<rect x="0.626221" y="0.525635" width="24.0854" height="24" rx="4" fill="#593F3F"/>
<path d="M16.6266 12.8894C16.0402 12.8874 15.4696 13.0793 15.0036 13.4354C14.5376 13.7914 14.2024 14.2915 14.0503 14.8579C13.8981 15.4242 13.9375 16.025 14.1623 16.5666C14.3871 17.1082 14.7847 17.5603 15.2932 17.8525V19.7413C15.2931 19.8364 15.3213 19.9294 15.3741 20.0085C15.4269 20.0876 15.502 20.1492 15.5899 20.1856C15.6778 20.222 15.7744 20.2315 15.8677 20.213C15.961 20.1944 16.0467 20.1486 16.1139 20.0813L16.6266 19.5693L17.1393 20.0813C17.2065 20.1486 17.2922 20.1944 17.3855 20.213C17.4788 20.2315 17.5755 20.222 17.6633 20.1856C17.7512 20.1492 17.8263 20.0876 17.8791 20.0085C17.9319 19.9294 17.9601 19.8364 17.96 19.7413V17.8525C18.4685 17.5603 18.8661 17.1082 19.0909 16.5666C19.3157 16.025 19.3551 15.4242 19.2029 14.8579C19.0508 14.2915 18.7156 13.7914 18.2496 13.4354C17.7837 13.0793 17.213 12.8874 16.6266 12.8894Z" fill="white"/>
<path d="M12.6267 15.5566C12.6259 14.8542 12.8103 14.1639 13.1613 13.5554C13.5123 12.9469 14.0175 12.4418 14.626 12.0908C15.2345 11.7398 15.9248 11.5555 16.6272 11.5563C17.3297 11.5572 18.0195 11.7432 18.6272 12.0957V7.556C18.6261 6.67221 18.2745 5.82491 17.6496 5.19997C17.0247 4.57503 16.1774 4.22347 15.2936 4.22241L9.95981 4.22241C9.07601 4.22347 8.22872 4.57503 7.60378 5.19997C6.97884 5.82491 6.62728 6.67221 6.62622 7.556V15.5566C6.62728 16.4404 6.97884 17.2877 7.60378 17.9127C8.22872 18.5376 9.07601 18.8892 9.95981 18.8902H13.9601V18.5302C13.5408 18.1566 13.2052 17.6985 12.9754 17.186C12.7456 16.6735 12.6268 16.1183 12.6267 15.5566ZM9.95981 6.88929H15.2936C15.4704 6.88929 15.64 6.95953 15.765 7.08456C15.89 7.2096 15.9603 7.37918 15.9603 7.556C15.9603 7.73283 15.89 7.90241 15.765 8.02745C15.64 8.15248 15.4704 8.22272 15.2936 8.22272H9.95981C9.78299 8.22272 9.61341 8.15248 9.48837 8.02745C9.36334 7.90241 9.2931 7.73283 9.2931 7.556C9.2931 7.37918 9.36334 7.2096 9.48837 7.08456C9.61341 6.95953 9.78299 6.88929 9.95981 6.88929ZM9.95981 9.55616H15.2936C15.4704 9.55616 15.64 9.6264 15.765 9.75144C15.89 9.87647 15.9603 10.0461 15.9603 10.2229C15.9603 10.3997 15.89 10.5693 15.765 10.6943C15.64 10.8194 15.4704 10.8896 15.2936 10.8896H9.95981C9.78299 10.8896 9.61341 10.8194 9.48837 10.6943C9.36334 10.5693 9.2931 10.3997 9.2931 10.2229C9.2931 10.0461 9.36334 9.87647 9.48837 9.75144C9.61341 9.6264 9.78299 9.55616 9.95981 9.55616ZM11.96 13.5565H9.95981C9.78299 13.5565 9.61341 13.4862 9.48837 13.3612C9.36334 13.2362 9.2931 13.0666 9.2931 12.8898C9.2931 12.7129 9.36334 12.5433 9.48837 12.4183C9.61341 12.2933 9.78299 12.223 9.95981 12.223H11.96C12.1368 12.223 12.3064 12.2933 12.4314 12.4183C12.5564 12.5433 12.6267 12.7129 12.6267 12.8898C12.6267 13.0666 12.5564 13.2362 12.4314 13.3612C12.3064 13.4862 12.1368 13.5565 11.96 13.5565Z" fill="white"/>
</svg>
