<svg width="33" height="32" viewBox="0 0 33 32" fill="none" xmlns="http://www.w3.org/2000/svg">
<path fill-rule="evenodd" clip-rule="evenodd" d="M12.9444 11.5556C12.9444 10.6126 13.319 9.70819 13.9858 9.0414C14.6526 8.3746 15.557 8 16.5 8C17.443 8 18.3474 8.3746 19.0142 9.0414C19.681 9.70819 20.0556 10.6126 20.0556 11.5556C20.0556 12.4985 19.681 13.4029 19.0142 14.0697C18.3474 14.7365 17.443 15.1111 16.5 15.1111C15.557 15.1111 14.6526 14.7365 13.9858 14.0697C13.319 13.4029 12.9444 12.4985 12.9444 11.5556ZM12.9444 16.8889C11.7657 16.8889 10.6352 17.3571 9.80175 18.1906C8.96825 19.0241 8.5 20.1546 8.5 21.3333C8.5 22.0406 8.78095 22.7189 9.28105 23.219C9.78115 23.719 10.4594 24 11.1667 24H21.8333C22.5406 24 23.2189 23.719 23.719 23.219C24.219 22.7189 24.5 22.0406 24.5 21.3333C24.5 20.1546 24.0317 19.0241 23.1983 18.1906C22.3648 17.3571 21.2343 16.8889 20.0556 16.8889H12.9444Z" fill="#593F3F"/>
</svg>
