<svg width="33" height="33" viewBox="0 0 33 33" fill="none" xmlns="http://www.w3.org/2000/svg">
<path d="M13.1534 9.01375C13.0297 9.1371 12.9317 9.28362 12.8648 9.44492C12.7979 9.60622 12.7634 9.77913 12.7634 9.95375C12.7634 10.1284 12.7979 10.3013 12.8648 10.4626C12.9317 10.6239 13.0297 10.7704 13.1534 10.8938L18.3267 16.0671L13.1534 21.2404C12.904 21.4897 12.764 21.8278 12.764 22.1804C12.764 22.533 12.904 22.8711 13.1534 23.1204C13.4027 23.3697 13.7408 23.5098 14.0934 23.5098C14.4459 23.5098 14.784 23.3697 15.0334 23.1204L21.1534 17.0004C21.277 16.8771 21.375 16.7305 21.4419 16.5693C21.5088 16.408 21.5433 16.235 21.5433 16.0604C21.5433 15.8858 21.5088 15.7129 21.4419 15.5516C21.375 15.3903 21.277 15.2438 21.1534 15.1204L15.0334 9.00042C14.5267 8.49375 13.6734 8.49375 13.1534 9.01375Z" fill="#593F3F"/>
</svg>
