<svg width="33" height="33" viewBox="0 0 33 33" fill="none" xmlns="http://www.w3.org/2000/svg">
<path d="M13.0396 9.74312C12.916 9.86647 12.8179 10.013 12.751 10.1743C12.6841 10.3356 12.6497 10.5085 12.6497 10.6831C12.6497 10.8577 12.6841 11.0307 12.751 11.192C12.8179 11.3533 12.916 11.4998 13.0396 11.6231L18.2129 16.7965L13.0396 21.9698C12.7903 22.2191 12.6502 22.5572 12.6502 22.9098C12.6502 23.2624 12.7903 23.6005 13.0396 23.8498C13.2889 24.0991 13.627 24.2391 13.9796 24.2391C14.3322 24.2391 14.6703 24.0991 14.9196 23.8498L21.0396 17.7298C21.1632 17.6064 21.2613 17.4599 21.3282 17.2986C21.3951 17.1373 21.4295 16.9644 21.4295 16.7898C21.4295 16.6152 21.3951 16.4423 21.3282 16.281C21.2613 16.1197 21.1632 15.9731 21.0396 15.8498L14.9196 9.72979C14.4129 9.22312 13.5596 9.22312 13.0396 9.74312Z" fill="#593F3F"/>
</svg>
