<svg width="25" height="24" viewBox="0 0 25 24" fill="none" xmlns="http://www.w3.org/2000/svg">
<rect x="0.666016" width="24" height="24" rx="4" fill="#593F3F"/>
<path d="M7.95 7H17.05C17.5672 7 18.0632 7.19754 18.4289 7.54917C18.7946 7.90081 19 8.37772 19 8.875V11.375H14.45V10.75H10.55V11.375H6V8.875C6 8.37772 6.20545 7.90081 6.57114 7.54917C6.93684 7.19754 7.43283 7 7.95 7ZM11.85 11.375H13.15V12.625H11.85V11.375ZM6 12H10.55V12.625L11.85 13.875H13.15L14.45 12.625V12H19V17H6V12Z" fill="white"/>
</svg>
