<svg width="33" height="32" viewBox="0 0 33 32" fill="none" xmlns="http://www.w3.org/2000/svg">
<path d="M16.3663 14.8804C16.5345 15.0482 16.7624 15.1424 17 15.1424C17.2376 15.1424 17.4655 15.0482 17.6337 14.8804L19.3089 13.2047C19.3921 13.1215 19.4581 13.0228 19.5031 12.9141C19.5482 12.8054 19.5713 12.6889 19.5713 12.5712C19.5713 12.4536 19.5482 12.3371 19.5031 12.2284C19.4581 12.1197 19.3921 12.0209 19.3089 11.9377L17.6337 10.2621C17.4655 10.0942 17.2376 10 17 10C16.7624 10 16.5345 10.0942 16.3663 10.2621L14.6911 11.9377C14.6079 12.0209 14.5419 12.1197 14.4969 12.2284C14.4518 12.3371 14.4287 12.4536 14.4287 12.5712C14.4287 12.6889 14.4518 12.8054 14.4969 12.9141C14.5419 13.0228 14.6079 13.1215 14.6911 13.2047L16.3663 14.8804ZM15.2949 12.5436L16.9705 10.8685C16.9777 10.8614 16.9873 10.8575 16.9973 10.8575C17.0074 10.8575 17.017 10.8614 17.0241 10.8685L18.6998 12.5436C18.7065 12.5509 18.7102 12.5605 18.7102 12.5704C18.7102 12.5803 18.7065 12.5899 18.6998 12.5972L17.0273 14.2745C17.0201 14.2814 17.0105 14.2853 17.0005 14.2853C16.9905 14.2853 16.9809 14.2814 16.9738 14.2745L15.297 12.5988C15.2898 12.5914 15.2858 12.5815 15.2858 12.5712C15.2858 12.5609 15.2898 12.551 15.297 12.5436H15.2949ZM22.7358 15.3663L21.0623 13.6906C20.8941 13.5228 20.6663 13.4286 20.4288 13.4286C20.1913 13.4286 19.9634 13.5228 19.7953 13.6906L18.1196 15.3663C17.9518 15.5345 17.8576 15.7624 17.8576 16C17.8576 16.2376 17.9518 16.4655 18.1196 16.6337L19.7953 18.3094C19.9634 18.4772 20.1913 18.5714 20.4288 18.5714C20.6663 18.5714 20.8941 18.4772 21.0623 18.3094L22.7379 16.6337C22.9058 16.4655 23 16.2376 23 16C23 15.7624 22.9058 15.5345 22.7379 15.3663H22.7358ZM22.1321 16.0273L20.4564 17.703C20.4491 17.7097 20.4395 17.7134 20.4296 17.7134C20.4197 17.7134 20.4101 17.7097 20.4028 17.703L18.7271 16.0273C18.7202 16.0201 18.7163 16.0105 18.7163 16.0005C18.7163 15.9905 18.7202 15.9809 18.7271 15.9738L20.4028 14.2981C20.4101 14.2914 20.4197 14.2876 20.4296 14.2876C20.4395 14.2876 20.4491 14.2914 20.4564 14.2981L22.1321 15.9738C22.139 15.9809 22.1429 15.9905 22.1429 16.0005C22.1429 16.0105 22.139 16.0201 22.1321 16.0273ZM15.8804 15.3663L14.2047 13.6906C14.0366 13.5228 13.8087 13.4286 13.5712 13.4286C13.3337 13.4286 13.1059 13.5228 12.9377 13.6906L11.2621 15.3663C11.0942 15.5345 11 15.7624 11 16C11 16.2376 11.0942 16.4655 11.2621 16.6337L12.9377 18.3094C13.1059 18.4772 13.3337 18.5714 13.5712 18.5714C13.8087 18.5714 14.0366 18.4772 14.2047 18.3094L15.8804 16.6337C16.0482 16.4655 16.1424 16.2376 16.1424 16C16.1424 15.7624 16.0482 15.5345 15.8804 15.3663ZM15.2745 16.0273L13.5988 17.703C13.5915 17.7097 13.5819 17.7134 13.572 17.7134C13.5621 17.7134 13.5525 17.7097 13.5452 17.703L11.8679 16.0273C11.861 16.0201 11.8571 16.0105 11.8571 16.0005C11.8571 15.9905 11.861 15.9809 11.8679 15.9738L13.5436 14.297C13.5509 14.2903 13.5605 14.2866 13.5704 14.2866C13.5803 14.2866 13.5899 14.2903 13.5972 14.297L15.2729 15.9727C15.2766 15.9762 15.2796 15.9803 15.2817 15.985C15.2837 15.9896 15.2849 15.9946 15.285 15.9997C15.2852 16.0047 15.2843 16.0098 15.2825 16.0145C15.2807 16.0193 15.278 16.0236 15.2745 16.0273ZM17.6316 17.1196C17.4634 16.9518 17.2355 16.8576 16.9979 16.8576C16.7602 16.8576 16.5323 16.9518 16.3641 17.1196L14.6911 18.7953C14.6079 18.8785 14.5419 18.9772 14.4969 19.0859C14.4518 19.1946 14.4287 19.3111 14.4287 19.4288C14.4287 19.5464 14.4518 19.6629 14.4969 19.7716C14.5419 19.8803 14.6079 19.9791 14.6911 20.0623L16.3663 21.7379C16.5345 21.9058 16.7624 22 17 22C17.2376 22 17.4655 21.9058 17.6337 21.7379L19.3089 20.0623C19.3921 19.9791 19.4581 19.8803 19.5031 19.7716C19.5482 19.6629 19.5713 19.5464 19.5713 19.4288C19.5713 19.3111 19.5482 19.1946 19.5031 19.0859C19.4581 18.9772 19.3921 18.8785 19.3089 18.7953L17.6316 17.1196ZM18.703 19.4564L17.0273 21.1315C17.0202 21.1386 17.0106 21.1425 17.0005 21.1425C16.9905 21.1425 16.9809 21.1386 16.9738 21.1315L15.297 19.4564C15.2903 19.4491 15.2866 19.4395 15.2866 19.4296C15.2866 19.4197 15.2903 19.4101 15.297 19.4028L16.9727 17.7271C16.9799 17.7202 16.9895 17.7163 16.9995 17.7163C17.0095 17.7163 17.0191 17.7202 17.0262 17.7271L18.7019 19.4028C18.7088 19.41 18.7127 19.4195 18.7129 19.4294C18.7131 19.4393 18.7096 19.4489 18.703 19.4564Z" fill="#593F3F"/>
</svg>
