<svg width="33" height="32" viewBox="0 0 33 32" fill="none" xmlns="http://www.w3.org/2000/svg">
<path d="M15.7267 18.3933L16.6667 19.3333L20 16L16.6667 12.6667L15.7267 13.6067L17.4467 15.3333H11V16.6667H17.4467L15.7267 18.3933ZM21.6667 10H12.3333C11.9797 10 11.6406 10.1405 11.3905 10.3905C11.1405 10.6406 11 10.9797 11 11.3333V14H12.3333V11.3333H21.6667V20.6667H12.3333V18H11V20.6667C11 21.0203 11.1405 21.3594 11.3905 21.6095C11.6406 21.8595 11.9797 22 12.3333 22H21.6667C22.4 22 23 21.4 23 20.6667V11.3333C23 10.6 22.4 10 21.6667 10Z" fill="#593F3F"/>
</svg>
