<svg width="29" height="29" viewBox="0 0 29 29" fill="none" xmlns="http://www.w3.org/2000/svg">
<path d="M12.632 18.5312L14.042 19.9412L19.042 14.9412L14.042 9.94116L12.632 11.3512L15.212 13.9412H5.54199V15.9412H15.212L12.632 18.5312ZM21.542 5.94116H7.54199C7.01156 5.94116 6.50285 6.15188 6.12778 6.52695C5.75271 6.90202 5.54199 7.41073 5.54199 7.94116V11.9412H7.54199V7.94116H21.542V21.9412H7.54199V17.9412H5.54199V21.9412C5.54199 22.4716 5.75271 22.9803 6.12778 23.3554C6.50285 23.7304 7.01156 23.9412 7.54199 23.9412H21.542C22.642 23.9412 23.542 23.0412 23.542 21.9412V7.94116C23.542 6.84116 22.642 5.94116 21.542 5.94116Z" fill="#1E6DD5"/>
</svg>
