<svg width="25" height="24" viewBox="0 0 25 24" fill="none" xmlns="http://www.w3.org/2000/svg">
<rect x="0.333984" width="24" height="24" rx="4" fill="#593F3F"/>
<path d="M15.2805 12.5C14.8423 12.4985 14.4158 12.6425 14.0676 12.9095C13.7193 13.1765 13.4689 13.5516 13.3551 13.9764C13.2414 14.4011 13.2709 14.8517 13.4389 15.2579C13.6069 15.6641 13.904 16.0032 14.284 16.2223V17.6389C14.284 17.7102 14.305 17.78 14.3445 17.8393C14.384 17.8986 14.4401 17.9449 14.5058 17.9722C14.5714 17.9995 14.6437 18.0066 14.7134 17.9927C14.7831 17.9788 14.8471 17.9444 14.8974 17.8939L15.2805 17.5099L15.6637 17.8939C15.714 17.9444 15.778 17.9788 15.8477 17.9927C15.9174 18.0066 15.9897 17.9995 16.0553 17.9722C16.121 17.9449 16.1771 17.8986 16.2166 17.8393C16.2561 17.78 16.2771 17.7102 16.2771 17.6389V16.2223C16.6571 16.0032 16.9542 15.6641 17.1222 15.2579C17.2902 14.8517 17.3197 14.4011 17.2059 13.9764C17.0922 13.5516 16.8417 13.1765 16.4935 12.9095C16.1453 12.6425 15.7188 12.4985 15.2805 12.5Z" fill="white"/>
<path d="M12.291 14.5007C12.2904 13.9738 12.4282 13.4561 12.6905 12.9998C12.9529 12.5434 13.3304 12.1645 13.7852 11.9013C14.24 11.638 14.7558 11.4998 15.2808 11.5004C15.8058 11.5011 16.3213 11.6406 16.7754 11.905V8.50019C16.7746 7.83735 16.5119 7.20187 16.0449 6.73317C15.5778 6.26446 14.9446 6.00079 14.2841 6H10.298C9.63747 6.00079 9.00425 6.26446 8.53721 6.73317C8.07016 7.20187 7.80743 7.83735 7.80664 8.50019V14.5007C7.80743 15.1635 8.07016 15.799 8.53721 16.2677C9.00425 16.7364 9.63747 17.0001 10.298 17.0009H13.2876V16.7308C12.9742 16.4506 12.7234 16.107 12.5517 15.7227C12.3799 15.3383 12.2911 14.9219 12.291 14.5007ZM10.298 8.00016H14.2841C14.4162 8.00016 14.543 8.05284 14.6364 8.14661C14.7299 8.24039 14.7824 8.36758 14.7824 8.50019C14.7824 8.63281 14.7299 8.76 14.6364 8.85378C14.543 8.94755 14.4162 9.00023 14.2841 9.00023H10.298C10.1658 9.00023 10.0391 8.94755 9.94564 8.85378C9.8522 8.76 9.7997 8.63281 9.7997 8.50019C9.7997 8.36758 9.8522 8.24039 9.94564 8.14661C10.0391 8.05284 10.1658 8.00016 10.298 8.00016ZM10.298 10.0003H14.2841C14.4162 10.0003 14.543 10.053 14.6364 10.1468C14.7299 10.2405 14.7824 10.3677 14.7824 10.5004C14.7824 10.633 14.7299 10.7602 14.6364 10.8539C14.543 10.9477 14.4162 11.0004 14.2841 11.0004H10.298C10.1658 11.0004 10.0391 10.9477 9.94564 10.8539C9.8522 10.7602 9.7997 10.633 9.7997 10.5004C9.7997 10.3677 9.8522 10.2405 9.94564 10.1468C10.0391 10.053 10.1658 10.0003 10.298 10.0003ZM11.7928 13.0005H10.298C10.1658 13.0005 10.0391 12.9479 9.94564 12.8541C9.8522 12.7603 9.7997 12.6331 9.7997 12.5005C9.7997 12.3679 9.8522 12.2407 9.94564 12.1469C10.0391 12.0531 10.1658 12.0005 10.298 12.0005H11.7928C11.9249 12.0005 12.0517 12.0531 12.1451 12.1469C12.2385 12.2407 12.291 12.3679 12.291 12.5005C12.291 12.6331 12.2385 12.7603 12.1451 12.8541C12.0517 12.9479 11.9249 13.0005 11.7928 13.0005Z" fill="white"/>
</svg>
