<svg width="25" height="24" viewBox="0 0 25 24" fill="none" xmlns="http://www.w3.org/2000/svg">
<path d="M9.97799 6.70978C9.88529 6.80229 9.81174 6.91218 9.76156 7.03315C9.71138 7.15413 9.68555 7.28381 9.68555 7.41478C9.68555 7.54575 9.71138 7.67543 9.76156 7.7964C9.81174 7.91738 9.88529 8.02726 9.97799 8.11978L13.858 11.9998L9.97799 15.8798C9.79101 16.0668 9.68597 16.3203 9.68597 16.5848C9.68597 16.8492 9.79101 17.1028 9.97799 17.2898C10.165 17.4768 10.4186 17.5818 10.683 17.5818C10.9474 17.5818 11.201 17.4768 11.388 17.2898L15.978 12.6998C16.0707 12.6073 16.1442 12.4974 16.1944 12.3764C16.2446 12.2554 16.2704 12.1257 16.2704 11.9948C16.2704 11.8638 16.2446 11.7341 16.1944 11.6132C16.1442 11.4922 16.0707 11.3823 15.978 11.2898L11.388 6.69978C11.008 6.31978 10.368 6.31978 9.97799 6.70978Z" fill="#593F3F"/>
</svg>
