<svg width="29" height="29" viewBox="0 0 29 29" fill="none" xmlns="http://www.w3.org/2000/svg">
<rect y="0.619141" width="29" height="27.619" rx="4" fill="#593F3F"/>
<path d="M21.04 6.61914H10.8C10.5454 6.61914 10.3012 6.72028 10.1212 6.90032C9.94114 7.08035 9.84 7.32453 9.84 7.57914V10.4591H6.96C6.70539 10.4591 6.46121 10.5603 6.28118 10.7403C6.10114 10.9204 6 11.1645 6 11.4191V21.6591C6 21.9137 6.10114 22.1579 6.28118 22.338C6.46121 22.518 6.70539 22.6191 6.96 22.6191H17.2C17.4546 22.6191 17.6988 22.518 17.8788 22.338C18.0589 22.1579 18.16 21.9137 18.16 21.6591V18.7791H21.04C21.2946 18.7791 21.5388 18.678 21.7188 18.498C21.8989 18.3179 22 18.0737 22 17.8191V7.57914C22 7.32453 21.8989 7.08035 21.7188 6.90032C21.5388 6.72028 21.2946 6.61914 21.04 6.61914ZM16.24 20.6991H7.92V12.3791H16.24V20.6991ZM20.08 16.8591H18.16V11.4191C18.16 11.1645 18.0589 10.9204 17.8788 10.7403C17.6988 10.5603 17.4546 10.4591 17.2 10.4591H11.76V8.53914H20.08V16.8591Z" fill="white"/>
</svg>
