<svg width="24" height="24" viewBox="0 0 24 24" fill="none" xmlns="http://www.w3.org/2000/svg">
<path d="M10.125 6.375C10.125 6.07833 10.213 5.78832 10.3778 5.54165C10.5426 5.29497 10.7769 5.10271 11.051 4.98918C11.3251 4.87565 11.6267 4.84594 11.9176 4.90382C12.2086 4.9617 12.4759 5.10456 12.6857 5.31434C12.8954 5.52412 13.0383 5.79139 13.0962 6.08236C13.1541 6.37334 13.1244 6.67494 13.0108 6.94903C12.8973 7.22311 12.705 7.45738 12.4584 7.6222C12.2117 7.78703 11.9217 7.875 11.625 7.875C11.2272 7.875 10.8456 7.71696 10.5643 7.43566C10.283 7.15436 10.125 6.77282 10.125 6.375ZM22.125 10.5C22.125 12.5025 21.5312 14.4601 20.4186 16.1251C19.3061 17.7902 17.7248 19.0879 15.8747 19.8543C14.0246 20.6206 11.9888 20.8211 10.0247 20.4305C8.06066 20.0398 6.25656 19.0755 4.84055 17.6595C3.42454 16.2435 2.46023 14.4393 2.06955 12.4753C1.67888 10.5112 1.87939 8.47543 2.64572 6.62533C3.41206 4.77523 4.70981 3.19392 6.37486 2.08137C8.0399 0.968821 9.99747 0.375 12 0.375C14.6844 0.377978 17.258 1.44567 19.1562 3.34383C21.0543 5.24199 22.122 7.8156 22.125 10.5ZM19.875 10.5C19.875 8.94247 19.4131 7.41992 18.5478 6.12488C17.6825 4.82985 16.4526 3.82049 15.0136 3.22445C13.5747 2.62841 11.9913 2.47246 10.4637 2.77632C8.93607 3.08017 7.53288 3.8302 6.43154 4.93153C5.3302 6.03287 4.58018 7.43606 4.27632 8.96366C3.97246 10.4913 4.12841 12.0747 4.72445 13.5136C5.32049 14.9526 6.32985 16.1825 7.62489 17.0478C8.91993 17.9131 10.4425 18.375 12 18.375C14.0879 18.3728 16.0896 17.5424 17.566 16.066C19.0424 14.5896 19.8728 12.5879 19.875 10.5ZM13.125 13.9387V10.875C13.125 10.3777 12.9275 9.90081 12.5758 9.54918C12.2242 9.19754 11.7473 9 11.25 9C10.9843 8.9996 10.7271 9.09325 10.5238 9.26435C10.3206 9.43544 10.1844 9.67295 10.1395 9.93481C10.0946 10.1967 10.1438 10.466 10.2784 10.695C10.413 10.9241 10.6244 11.0981 10.875 11.1863V14.25C10.875 14.7473 11.0725 15.2242 11.4242 15.5758C11.7758 15.9275 12.2527 16.125 12.75 16.125C13.0157 16.1254 13.2729 16.0318 13.4762 15.8607C13.6794 15.6896 13.8156 15.452 13.8605 15.1902C13.9054 14.9283 13.8562 14.659 13.7216 14.43C13.587 14.2009 13.3756 14.0269 13.125 13.9387Z" fill="#593F3F"/>
</svg>
