<svg width="33" height="32" viewBox="0 0 33 32" fill="none" xmlns="http://www.w3.org/2000/svg">
<path d="M14.1262 8.5C14.1262 8.10444 14.2435 7.71776 14.4633 7.38886C14.6831 7.05996 14.9954 6.80362 15.3609 6.65224C15.7263 6.50087 16.1284 6.46126 16.5164 6.53843C16.9044 6.6156 17.2607 6.80608 17.5404 7.08579C17.8201 7.36549 18.0106 7.72186 18.0878 8.10982C18.165 8.49778 18.1254 8.89991 17.974 9.26537C17.8226 9.63082 17.5663 9.94318 17.2374 10.1629C16.9085 10.3827 16.5218 10.5 16.1262 10.5C15.5958 10.5 15.0871 10.2893 14.712 9.91421C14.3369 9.53914 14.1262 9.03043 14.1262 8.5ZM30.1262 14C30.1262 16.67 29.3345 19.2801 27.8511 21.5002C26.3677 23.7203 24.2593 25.4506 21.7925 26.4724C19.3256 27.4942 16.6113 27.7615 13.9925 27.2406C11.3738 26.7197 8.96829 25.434 7.08029 23.5459C5.19228 21.6579 3.90653 19.2525 3.38563 16.6337C2.86472 14.015 3.13207 11.3006 4.15385 8.83377C5.17564 6.36697 6.90596 4.25856 9.12603 2.77516C11.3461 1.29176 13.9562 0.5 16.6262 0.5C20.2054 0.50397 23.6369 1.92756 26.1678 4.45844C28.6987 6.98932 30.1223 10.4208 30.1262 14ZM27.1262 14C27.1262 11.9233 26.5104 9.89323 25.3567 8.16651C24.2029 6.4398 22.563 5.09399 20.6444 4.29926C18.7258 3.50454 16.6146 3.29661 14.5778 3.70175C12.541 4.1069 10.6701 5.10693 9.20161 6.57538C7.73315 8.04383 6.73313 9.91475 6.32798 11.9516C5.92284 13.9884 6.13077 16.0996 6.92549 18.0182C7.72021 19.9368 9.06602 21.5767 10.7927 22.7304C12.5195 23.8842 14.5495 24.5 16.6262 24.5C19.4101 24.497 22.0791 23.3898 24.0476 21.4213C26.016 19.4528 27.1232 16.7839 27.1262 14ZM18.1262 18.585V14.5C18.1262 13.837 17.8628 13.2011 17.394 12.7322C16.9252 12.2634 16.2893 12 15.6262 12C15.272 11.9995 14.929 12.1243 14.658 12.3525C14.387 12.5806 14.2055 12.8973 14.1456 13.2464C14.0857 13.5956 14.1513 13.9546 14.3308 14.26C14.5103 14.5654 14.7921 14.7974 15.1262 14.915V19C15.1262 19.663 15.3896 20.2989 15.8585 20.7678C16.3273 21.2366 16.9632 21.5 17.6262 21.5C17.9805 21.5005 18.3235 21.3757 18.5945 21.1475C18.8655 20.9194 19.047 20.6027 19.1069 20.2536C19.1668 19.9044 19.1011 19.5454 18.9217 19.24C18.7422 18.9346 18.4604 18.7026 18.1262 18.585Z" fill="#593F3F"/>
</svg>
