<svg width="24" height="24" viewBox="0 0 24 24" fill="none" xmlns="http://www.w3.org/2000/svg">
<rect width="24" height="24" rx="4" fill="#593F3F"/>
<path fill-rule="evenodd" clip-rule="evenodd" d="M8.96717 8.25C8.96717 7.45435 9.28212 6.69129 9.84273 6.12868C10.4033 5.56607 11.1637 5.25 11.9565 5.25C12.7494 5.25 13.5097 5.56607 14.0703 6.12868C14.6309 6.69129 14.9459 7.45435 14.9459 8.25C14.9459 9.04565 14.6309 9.80871 14.0703 10.3713C13.5097 10.9339 12.7494 11.25 11.9565 11.25C11.1637 11.25 10.4033 10.9339 9.84273 10.3713C9.28212 9.80871 8.96717 9.04565 8.96717 8.25ZM8.96717 12.75C7.97614 12.75 7.02569 13.1451 6.32492 13.8483C5.62416 14.5516 5.23047 15.5054 5.23047 16.5C5.23047 17.0967 5.46668 17.669 5.88714 18.091C6.3076 18.5129 6.87787 18.75 7.47249 18.75H16.4406C17.0352 18.75 17.6055 18.5129 18.0259 18.091C18.4464 17.669 18.6826 17.0967 18.6826 16.5C18.6826 15.5054 18.2889 14.5516 17.5881 13.8483C16.8874 13.1451 15.9369 12.75 14.9459 12.75H8.96717Z" fill="white"/>
</svg>
