<svg width="20" height="20" viewBox="0 0 20 20" fill="none" xmlns="http://www.w3.org/2000/svg">
<path d="M4.55283 3.6945C6.06496 2.38422 7.99948 1.66421 10.0003 1.667C14.6028 1.667 18.3337 5.39783 18.3337 10.0003C18.3337 11.7803 17.7753 13.4303 16.8253 14.7837L14.167 10.0003H16.667C16.6671 8.69335 16.283 7.41517 15.5625 6.32471C14.8421 5.23426 13.8169 4.37963 12.6146 3.8671C11.4123 3.35457 10.0859 3.20675 8.80029 3.44202C7.51466 3.67728 6.32654 4.28525 5.38366 5.19033L4.55283 3.6945ZM15.4478 16.3062C13.9357 17.6165 12.0012 18.3365 10.0003 18.3337C5.39783 18.3337 1.66699 14.6028 1.66699 10.0003C1.66699 8.22033 2.22533 6.57033 3.17533 5.217L5.83366 10.0003H3.33366C3.33355 11.3073 3.71762 12.5855 4.43811 13.676C5.15859 14.7664 6.18372 15.621 7.38601 16.1336C8.5883 16.6461 9.91473 16.7939 11.2004 16.5587C12.486 16.3234 13.6741 15.7154 14.617 14.8103L15.4478 16.3062Z" fill="white"/>
</svg>
