<svg width="16" height="17" viewBox="0 0 16 17" fill="none" xmlns="http://www.w3.org/2000/svg">
<path fill-rule="evenodd" clip-rule="evenodd" d="M6.47133 1.844C6 2.262 6 3.02666 6 4.55533V11.9207C6 13.4493 6 14.214 6.47133 14.632C6.94267 15.05 7.66333 14.9247 9.10467 14.6733L10.658 14.4027C12.254 14.124 13.052 13.9847 13.526 13.3993C14 12.8133 14 11.9667 14 10.2727V6.20333C14 4.51 14 3.66333 13.5267 3.07733C13.052 2.492 12.2533 2.35266 10.6573 2.07466L9.10533 1.80333C7.664 1.552 6.94333 1.42666 6.472 1.84466L6.47133 1.844ZM8 7.01733C8.276 7.01733 8.5 7.25133 8.5 7.54V8.936C8.5 9.22466 8.276 9.45866 8 9.45866C7.724 9.45866 7.5 9.22466 7.5 8.936V7.54C7.5 7.25133 7.724 7.01733 8 7.01733Z" fill="white"/>
<path d="M5.03133 3.23804C3.65933 3.24004 2.944 3.27004 2.488 3.72604C2 4.21404 2 4.99937 2 6.57137V9.9047C2 11.476 2 12.2614 2.488 12.75C2.944 13.2054 3.65933 13.236 5.03133 13.238C5 12.822 5 12.342 5 11.8227V4.65337C5 4.13337 5 3.65337 5.03133 3.23804Z" fill="white"/>
</svg>
