<svg width="19" height="12" viewBox="0 0 19 12" fill="none" xmlns="http://www.w3.org/2000/svg">
<path d="M0.5 5.4C0.5 3.96783 1.06893 2.59432 2.08162 1.58162C3.09432 0.568927 4.46783 0 5.9 0H6C6.39782 0 6.77936 0.158035 7.06066 0.43934C7.34196 0.720644 7.5 1.10218 7.5 1.5C7.5 1.89782 7.34196 2.27936 7.06066 2.56066C6.77936 2.84196 6.39782 3 6 3H5.9C5.26348 3 4.65303 3.25286 4.20294 3.70294C3.75286 4.15303 3.5 4.76348 3.5 5.4V6.6C3.5 6.91517 3.56208 7.22726 3.68269 7.51844C3.8033 7.80962 3.98008 8.0742 4.20294 8.29706C4.4258 8.51992 4.69038 8.6967 4.98156 8.81731C5.27274 8.93792 5.58483 9 5.9 9H6C6.39782 9 6.77936 9.15804 7.06066 9.43934C7.34196 9.72064 7.5 10.1022 7.5 10.5C7.5 10.8978 7.34196 11.2794 7.06066 11.5607C6.77936 11.842 6.39782 12 6 12H5.9C4.46783 12 3.09432 11.4311 2.08162 10.4184C1.06893 9.40568 0.5 8.03217 0.5 6.6V5.4ZM18.5 5.4C18.5 3.96783 17.9311 2.59432 16.9184 1.58162C15.9057 0.568927 14.5322 0 13.1 0H13C12.6022 0 12.2206 0.158035 11.9393 0.43934C11.658 0.720644 11.5 1.10218 11.5 1.5C11.5 1.89782 11.658 2.27936 11.9393 2.56066C12.2206 2.84196 12.6022 3 13 3H13.1C13.7365 3 14.347 3.25286 14.7971 3.70294C15.2471 4.15303 15.5 4.76348 15.5 5.4V6.6C15.5 6.91517 15.4379 7.22726 15.3173 7.51844C15.1967 7.80962 15.0199 8.0742 14.7971 8.29706C14.5742 8.51992 14.3096 8.6967 14.0184 8.81731C13.7273 8.93792 13.4152 9 13.1 9H13C12.6022 9 12.2206 9.15804 11.9393 9.43934C11.658 9.72064 11.5 10.1022 11.5 10.5C11.5 10.8978 11.658 11.2794 11.9393 11.5607C12.2206 11.842 12.6022 12 13 12H13.1C14.5322 12 15.9057 11.4311 16.9184 10.4184C17.9311 9.40568 18.5 8.03217 18.5 6.6V5.4ZM7 4.5C6.60218 4.5 6.22064 4.65804 5.93934 4.93934C5.65804 5.22064 5.5 5.60218 5.5 6C5.5 6.39782 5.65804 6.77936 5.93934 7.06066C6.22064 7.34196 6.60218 7.5 7 7.5H12C12.3978 7.5 12.7794 7.34196 13.0607 7.06066C13.342 6.77936 13.5 6.39782 13.5 6C13.5 5.60218 13.342 5.22064 13.0607 4.93934C12.7794 4.65804 12.3978 4.5 12 4.5H7Z" fill="#1E6DD5"/>
</svg>
