<svg width="16" height="16" viewBox="0 0 16 16" fill="none" xmlns="http://www.w3.org/2000/svg">
<path d="M0.439509 0.439997C0.578639 0.300669 0.743872 0.190136 0.925756 0.114721C1.10764 0.0393063 1.30261 0.000488281 1.49951 0.000488281C1.69641 0.000488281 1.89138 0.0393063 2.07326 0.114721C2.25515 0.190136 2.42038 0.300669 2.55951 0.439997L7.99951 5.878L13.4395 0.439997C13.5787 0.300796 13.744 0.190375 13.9258 0.11504C14.1077 0.0397052 14.3026 0.00093079 14.4995 0.000930786C14.6964 0.000930782 14.8913 0.0397052 15.0732 0.11504C15.2551 0.190375 15.4203 0.300796 15.5595 0.439997C15.6987 0.579198 15.8091 0.744454 15.8845 0.926329C15.9598 1.1082 15.9986 1.30314 15.9986 1.5C15.9986 1.69686 15.9598 1.89179 15.8845 2.07367C15.8091 2.25554 15.6987 2.4208 15.5595 2.56L10.1215 8L15.5595 13.44C15.8406 13.7211 15.9986 14.1024 15.9986 14.5C15.9986 14.8976 15.8406 15.2789 15.5595 15.56C15.2784 15.8411 14.8971 15.9991 14.4995 15.9991C14.1019 15.9991 13.7206 15.8411 13.4395 15.56L7.99951 10.122L2.55951 15.56C2.27838 15.8411 1.89709 15.9991 1.49951 15.9991C1.10193 15.9991 0.720638 15.8411 0.439509 15.56C0.158379 15.2789 0.000442505 14.8976 0.000442505 14.5C0.000442505 14.1024 0.158379 13.7211 0.439509 13.44L5.87751 8L0.439509 2.56C0.300181 2.42087 0.189648 2.25563 0.114233 2.07375C0.038818 1.89186 0 1.6969 0 1.5C0 1.3031 0.038818 1.10813 0.114233 0.926245C0.189648 0.74436 0.300181 0.579127 0.439509 0.439997Z" fill="#A2A2A2"/>
</svg>
